<?xml version="1.0" encoding="UTF-8"?>
<!DOCTYPE svg PUBLIC "-//W3C//DTD SVG 1.1//EN" "http://www.w3.org/Graphics/SVG/1.1/DTD/svg11.dtd">
<svg xmlns="http://www.w3.org/2000/svg" version="1.1" width="618px" height="618px" style="shape-rendering:geometricPrecision; text-rendering:geometricPrecision; image-rendering:optimizeQuality; fill-rule:evenodd; clip-rule:evenodd" xmlns:xlink="http://www.w3.org/1999/xlink">
<g><path style="opacity:0.989" fill="#fefffe" d="M 117.5,35.5 C 244.5,35.3333 371.5,35.5 498.5,36C 508.318,36.9924 514.818,42.159 518,51.5C 518.667,204.833 518.667,358.167 518,511.5C 515.042,520.304 509.042,525.638 500,527.5C 499.667,543.167 499.333,558.833 499,574.5C 497.437,577.728 494.937,579.895 491.5,581C 369.167,581.667 246.833,581.667 124.5,581C 119.459,579.291 116.625,575.791 116,570.5C 115.185,556.788 115.352,543.121 116.5,529.5C 115.439,526.166 113.105,524.666 109.5,525C 104.123,521.957 100.623,517.457 99,511.5C 98.3333,358.167 98.3333,204.833 99,51.5C 102.162,42.5278 108.328,37.1944 117.5,35.5 Z M 140.5,88.5 C 253.248,88.0041 365.914,88.5041 478.5,90C 479.293,91.0852 479.96,92.2519 480.5,93.5C 480.83,177.306 480.497,260.973 479.5,344.5C 478.5,345.333 477.5,346.167 476.5,347C 364.5,347.667 252.5,347.667 140.5,347C 138.833,346 137.5,344.667 136.5,343C 136.339,259.707 136.506,176.207 137,92.5C 137.69,90.6498 138.856,89.3164 140.5,88.5 Z"/></g>
<g><path style="opacity:0.991" fill="#fefffe" d="M 258.5,98.5 C 320.318,96.9262 381.984,99.0929 443.5,105C 450.333,107.833 455.167,112.667 458,119.5C 464.714,176.398 465.714,233.398 461,290.5C 459.803,298.807 458.803,307.141 458,315.5C 453.958,326.28 446.124,331.78 434.5,332C 350.5,337.986 266.5,337.986 182.5,332C 170.858,331.774 163.025,326.274 159,315.5C 153.01,250.499 153.01,185.499 159,120.5C 161.408,113.091 166.242,107.924 173.5,105C 201.941,102.309 230.274,100.142 258.5,98.5 Z"/></g>
</svg>
